<mxfile host="app.diagrams.net" modified="2020-10-31T03:21:40.621Z" agent="5.0 (Windows NT 10.0; Win64; x64) AppleWebKit/537.36 (KHTML, like Gecko) Chrome/86.0.4240.111 Safari/537.36 Edg/86.0.622.51" etag="DhDed2cedawixrLMLjcs" version="13.8.8" type="github" pages="2">
  <diagram id="C5RBs43oDa-KdzZeNtuy" name="Page-1">
    <mxGraphModel dx="780" dy="752" grid="1" gridSize="10" guides="1" tooltips="1" connect="1" arrows="1" fold="1" page="1" pageScale="1" pageWidth="827" pageHeight="1169" math="0" shadow="0">
      <root>
        <mxCell id="WIyWlLk6GJQsqaUBKTNV-0" />
        <mxCell id="WIyWlLk6GJQsqaUBKTNV-1" parent="WIyWlLk6GJQsqaUBKTNV-0" />
        <mxCell id="y89lDDbyIAxUnuFR2dNN-3" value="" style="endArrow=classic;html=1;entryX=0;entryY=0;entryDx=0;entryDy=0;" parent="WIyWlLk6GJQsqaUBKTNV-1" edge="1">
          <mxGeometry width="50" height="50" relative="1" as="geometry">
            <mxPoint x="80" y="160" as="sourcePoint" />
            <mxPoint x="160" y="160" as="targetPoint" />
          </mxGeometry>
        </mxCell>
        <mxCell id="y89lDDbyIAxUnuFR2dNN-4" value="&amp;amp;C" style="text;html=1;strokeColor=none;fillColor=none;align=center;verticalAlign=middle;whiteSpace=wrap;rounded=0;" parent="WIyWlLk6GJQsqaUBKTNV-1" vertex="1">
          <mxGeometry x="80" y="160" width="40" height="20" as="geometry" />
        </mxCell>
        <mxCell id="y89lDDbyIAxUnuFR2dNN-9" value="" style="endArrow=classic;html=1;entryX=0;entryY=0;entryDx=0;entryDy=0;" parent="WIyWlLk6GJQsqaUBKTNV-1" edge="1">
          <mxGeometry width="50" height="50" relative="1" as="geometry">
            <mxPoint x="300" y="160" as="sourcePoint" />
            <mxPoint x="380" y="160" as="targetPoint" />
          </mxGeometry>
        </mxCell>
        <mxCell id="y89lDDbyIAxUnuFR2dNN-24" value="" style="shape=table;html=1;whiteSpace=wrap;startSize=0;container=1;collapsible=0;childLayout=tableLayout;" parent="WIyWlLk6GJQsqaUBKTNV-1" vertex="1">
          <mxGeometry x="160" y="160" width="140" height="200" as="geometry" />
        </mxCell>
        <mxCell id="y89lDDbyIAxUnuFR2dNN-25" value="" style="shape=partialRectangle;html=1;whiteSpace=wrap;collapsible=0;dropTarget=0;pointerEvents=0;fillColor=none;top=0;left=0;bottom=0;right=0;points=[[0,0.5],[1,0.5]];portConstraint=eastwest;" parent="y89lDDbyIAxUnuFR2dNN-24" vertex="1">
          <mxGeometry width="140" height="40" as="geometry" />
        </mxCell>
        <mxCell id="y89lDDbyIAxUnuFR2dNN-26" value="&lt;span&gt;vptr for C&amp;amp;&amp;amp;A&lt;/span&gt;" style="shape=partialRectangle;html=1;whiteSpace=wrap;connectable=0;overflow=hidden;fillColor=none;top=0;left=0;bottom=0;right=0;" parent="y89lDDbyIAxUnuFR2dNN-25" vertex="1">
          <mxGeometry width="140" height="40" as="geometry" />
        </mxCell>
        <mxCell id="y89lDDbyIAxUnuFR2dNN-27" value="" style="shape=partialRectangle;html=1;whiteSpace=wrap;collapsible=0;dropTarget=0;pointerEvents=0;fillColor=none;top=0;left=0;bottom=0;right=0;points=[[0,0.5],[1,0.5]];portConstraint=eastwest;" parent="y89lDDbyIAxUnuFR2dNN-24" vertex="1">
          <mxGeometry y="40" width="140" height="40" as="geometry" />
        </mxCell>
        <mxCell id="y89lDDbyIAxUnuFR2dNN-28" value="&lt;span&gt;int a&lt;/span&gt;" style="shape=partialRectangle;html=1;whiteSpace=wrap;connectable=0;overflow=hidden;fillColor=none;top=0;left=0;bottom=0;right=0;" parent="y89lDDbyIAxUnuFR2dNN-27" vertex="1">
          <mxGeometry width="140" height="40" as="geometry" />
        </mxCell>
        <mxCell id="y89lDDbyIAxUnuFR2dNN-29" value="" style="shape=partialRectangle;html=1;whiteSpace=wrap;collapsible=0;dropTarget=0;pointerEvents=0;fillColor=none;top=0;left=0;bottom=0;right=0;points=[[0,0.5],[1,0.5]];portConstraint=eastwest;" parent="y89lDDbyIAxUnuFR2dNN-24" vertex="1">
          <mxGeometry y="80" width="140" height="40" as="geometry" />
        </mxCell>
        <mxCell id="y89lDDbyIAxUnuFR2dNN-30" value="vptr for B" style="shape=partialRectangle;html=1;whiteSpace=wrap;connectable=0;overflow=hidden;fillColor=none;top=0;left=0;bottom=0;right=0;" parent="y89lDDbyIAxUnuFR2dNN-29" vertex="1">
          <mxGeometry width="140" height="40" as="geometry" />
        </mxCell>
        <mxCell id="y89lDDbyIAxUnuFR2dNN-31" value="" style="shape=partialRectangle;html=1;whiteSpace=wrap;collapsible=0;dropTarget=0;pointerEvents=0;fillColor=none;top=0;left=0;bottom=0;right=0;points=[[0,0.5],[1,0.5]];portConstraint=eastwest;" parent="y89lDDbyIAxUnuFR2dNN-24" vertex="1">
          <mxGeometry y="120" width="140" height="40" as="geometry" />
        </mxCell>
        <mxCell id="y89lDDbyIAxUnuFR2dNN-32" value="int b" style="shape=partialRectangle;html=1;whiteSpace=wrap;connectable=0;overflow=hidden;fillColor=none;top=0;left=0;bottom=0;right=0;" parent="y89lDDbyIAxUnuFR2dNN-31" vertex="1">
          <mxGeometry width="140" height="40" as="geometry" />
        </mxCell>
        <mxCell id="y89lDDbyIAxUnuFR2dNN-33" value="" style="shape=partialRectangle;html=1;whiteSpace=wrap;collapsible=0;dropTarget=0;pointerEvents=0;fillColor=none;top=0;left=0;bottom=0;right=0;points=[[0,0.5],[1,0.5]];portConstraint=eastwest;" parent="y89lDDbyIAxUnuFR2dNN-24" vertex="1">
          <mxGeometry y="160" width="140" height="40" as="geometry" />
        </mxCell>
        <mxCell id="y89lDDbyIAxUnuFR2dNN-34" value="int c" style="shape=partialRectangle;html=1;whiteSpace=wrap;connectable=0;overflow=hidden;fillColor=none;top=0;left=0;bottom=0;right=0;" parent="y89lDDbyIAxUnuFR2dNN-33" vertex="1">
          <mxGeometry width="140" height="40" as="geometry" />
        </mxCell>
        <mxCell id="y89lDDbyIAxUnuFR2dNN-35" value="" style="shape=table;html=1;whiteSpace=wrap;startSize=0;container=1;collapsible=0;childLayout=tableLayout;" parent="WIyWlLk6GJQsqaUBKTNV-1" vertex="1">
          <mxGeometry x="380" y="80" width="140" height="280" as="geometry" />
        </mxCell>
        <mxCell id="y89lDDbyIAxUnuFR2dNN-36" value="" style="shape=partialRectangle;html=1;whiteSpace=wrap;collapsible=0;dropTarget=0;pointerEvents=0;fillColor=none;top=0;left=0;bottom=0;right=0;points=[[0,0.5],[1,0.5]];portConstraint=eastwest;" parent="y89lDDbyIAxUnuFR2dNN-35" vertex="1">
          <mxGeometry width="140" height="40" as="geometry" />
        </mxCell>
        <mxCell id="y89lDDbyIAxUnuFR2dNN-37" value="0 (top_offset)" style="shape=partialRectangle;html=1;whiteSpace=wrap;connectable=0;overflow=hidden;fillColor=none;top=0;left=0;bottom=0;right=0;" parent="y89lDDbyIAxUnuFR2dNN-36" vertex="1">
          <mxGeometry width="140" height="40" as="geometry" />
        </mxCell>
        <mxCell id="y89lDDbyIAxUnuFR2dNN-38" value="" style="shape=partialRectangle;html=1;whiteSpace=wrap;collapsible=0;dropTarget=0;pointerEvents=0;fillColor=none;top=0;left=0;bottom=0;right=0;points=[[0,0.5],[1,0.5]];portConstraint=eastwest;" parent="y89lDDbyIAxUnuFR2dNN-35" vertex="1">
          <mxGeometry y="40" width="140" height="40" as="geometry" />
        </mxCell>
        <mxCell id="y89lDDbyIAxUnuFR2dNN-39" value="type_info" style="shape=partialRectangle;html=1;whiteSpace=wrap;connectable=0;overflow=hidden;fillColor=none;top=0;left=0;bottom=0;right=0;" parent="y89lDDbyIAxUnuFR2dNN-38" vertex="1">
          <mxGeometry width="140" height="40" as="geometry" />
        </mxCell>
        <mxCell id="y89lDDbyIAxUnuFR2dNN-40" value="" style="shape=partialRectangle;html=1;whiteSpace=wrap;collapsible=0;dropTarget=0;pointerEvents=0;fillColor=none;top=0;left=0;bottom=0;right=0;points=[[0,0.5],[1,0.5]];portConstraint=eastwest;" parent="y89lDDbyIAxUnuFR2dNN-35" vertex="1">
          <mxGeometry y="80" width="140" height="40" as="geometry" />
        </mxCell>
        <mxCell id="y89lDDbyIAxUnuFR2dNN-41" value="A::vfa" style="shape=partialRectangle;html=1;whiteSpace=wrap;connectable=0;overflow=hidden;fillColor=none;top=0;left=0;bottom=0;right=0;" parent="y89lDDbyIAxUnuFR2dNN-40" vertex="1">
          <mxGeometry width="140" height="40" as="geometry" />
        </mxCell>
        <mxCell id="y89lDDbyIAxUnuFR2dNN-42" value="" style="shape=partialRectangle;html=1;whiteSpace=wrap;collapsible=0;dropTarget=0;pointerEvents=0;fillColor=none;top=0;left=0;bottom=0;right=0;points=[[0,0.5],[1,0.5]];portConstraint=eastwest;" parent="y89lDDbyIAxUnuFR2dNN-35" vertex="1">
          <mxGeometry y="120" width="140" height="40" as="geometry" />
        </mxCell>
        <mxCell id="y89lDDbyIAxUnuFR2dNN-43" value="C::vfc" style="shape=partialRectangle;html=1;whiteSpace=wrap;connectable=0;overflow=hidden;fillColor=none;top=0;left=0;bottom=0;right=0;" parent="y89lDDbyIAxUnuFR2dNN-42" vertex="1">
          <mxGeometry width="140" height="40" as="geometry" />
        </mxCell>
        <mxCell id="y89lDDbyIAxUnuFR2dNN-44" value="" style="shape=partialRectangle;html=1;whiteSpace=wrap;collapsible=0;dropTarget=0;pointerEvents=0;fillColor=none;top=0;left=0;bottom=0;right=0;points=[[0,0.5],[1,0.5]];portConstraint=eastwest;" parent="y89lDDbyIAxUnuFR2dNN-35" vertex="1">
          <mxGeometry y="160" width="140" height="40" as="geometry" />
        </mxCell>
        <mxCell id="y89lDDbyIAxUnuFR2dNN-45" value="-16 (top_offset)" style="shape=partialRectangle;html=1;whiteSpace=wrap;connectable=0;overflow=hidden;fillColor=none;top=0;left=0;bottom=0;right=0;" parent="y89lDDbyIAxUnuFR2dNN-44" vertex="1">
          <mxGeometry width="140" height="40" as="geometry" />
        </mxCell>
        <mxCell id="y89lDDbyIAxUnuFR2dNN-46" value="" style="shape=partialRectangle;html=1;whiteSpace=wrap;collapsible=0;dropTarget=0;pointerEvents=0;fillColor=none;top=0;left=0;bottom=0;right=0;points=[[0,0.5],[1,0.5]];portConstraint=eastwest;" parent="y89lDDbyIAxUnuFR2dNN-35" vertex="1">
          <mxGeometry y="200" width="140" height="40" as="geometry" />
        </mxCell>
        <mxCell id="y89lDDbyIAxUnuFR2dNN-47" value="type_info" style="shape=partialRectangle;html=1;whiteSpace=wrap;connectable=0;overflow=hidden;fillColor=none;top=0;left=0;bottom=0;right=0;" parent="y89lDDbyIAxUnuFR2dNN-46" vertex="1">
          <mxGeometry width="140" height="40" as="geometry" />
        </mxCell>
        <mxCell id="y89lDDbyIAxUnuFR2dNN-48" value="" style="shape=partialRectangle;html=1;whiteSpace=wrap;collapsible=0;dropTarget=0;pointerEvents=0;fillColor=none;top=0;left=0;bottom=0;right=0;points=[[0,0.5],[1,0.5]];portConstraint=eastwest;" parent="y89lDDbyIAxUnuFR2dNN-35" vertex="1">
          <mxGeometry y="240" width="140" height="40" as="geometry" />
        </mxCell>
        <mxCell id="y89lDDbyIAxUnuFR2dNN-49" value="B::vfb" style="shape=partialRectangle;html=1;whiteSpace=wrap;connectable=0;overflow=hidden;fillColor=none;top=0;left=0;bottom=0;right=0;" parent="y89lDDbyIAxUnuFR2dNN-48" vertex="1">
          <mxGeometry width="140" height="40" as="geometry" />
        </mxCell>
        <mxCell id="y89lDDbyIAxUnuFR2dNN-50" style="edgeStyle=orthogonalEdgeStyle;rounded=0;orthogonalLoop=1;jettySize=auto;html=1;" parent="WIyWlLk6GJQsqaUBKTNV-1" edge="1">
          <mxGeometry relative="1" as="geometry">
            <mxPoint x="380" y="320" as="targetPoint" />
            <Array as="points">
              <mxPoint x="300" y="240" />
              <mxPoint x="340" y="240" />
              <mxPoint x="340" y="320" />
              <mxPoint x="380" y="320" />
            </Array>
            <mxPoint x="300" y="240" as="sourcePoint" />
          </mxGeometry>
        </mxCell>
      </root>
    </mxGraphModel>
  </diagram>
  <diagram id="XkPAOWIO8l7YvOXpCbVt" name="Page-2">
    <mxGraphModel dx="780" dy="752" grid="1" gridSize="10" guides="1" tooltips="1" connect="1" arrows="1" fold="1" page="1" pageScale="1" pageWidth="850" pageHeight="1100" math="0" shadow="0">
      <root>
        <mxCell id="dKDHYjcSmhclD4qIwfsD-0" />
        <mxCell id="dKDHYjcSmhclD4qIwfsD-1" parent="dKDHYjcSmhclD4qIwfsD-0" />
        <mxCell id="JhyzTTC5hSeloBepiJR5-0" value="" style="endArrow=classic;html=1;entryX=0;entryY=0;entryDx=0;entryDy=0;" edge="1" parent="dKDHYjcSmhclD4qIwfsD-1">
          <mxGeometry width="50" height="50" relative="1" as="geometry">
            <mxPoint x="80" y="160" as="sourcePoint" />
            <mxPoint x="160" y="160" as="targetPoint" />
          </mxGeometry>
        </mxCell>
        <mxCell id="JhyzTTC5hSeloBepiJR5-1" value="&amp;amp;D" style="text;html=1;strokeColor=none;fillColor=none;align=center;verticalAlign=middle;whiteSpace=wrap;rounded=0;" vertex="1" parent="dKDHYjcSmhclD4qIwfsD-1">
          <mxGeometry x="80" y="160" width="40" height="20" as="geometry" />
        </mxCell>
        <mxCell id="JhyzTTC5hSeloBepiJR5-2" value="" style="endArrow=classic;html=1;entryX=0;entryY=0;entryDx=0;entryDy=0;" edge="1" parent="dKDHYjcSmhclD4qIwfsD-1">
          <mxGeometry width="50" height="50" relative="1" as="geometry">
            <mxPoint x="300" y="160" as="sourcePoint" />
            <mxPoint x="380" y="160" as="targetPoint" />
          </mxGeometry>
        </mxCell>
        <mxCell id="JhyzTTC5hSeloBepiJR5-30" value="" style="shape=table;html=1;whiteSpace=wrap;startSize=0;container=1;collapsible=0;childLayout=tableLayout;" vertex="1" parent="dKDHYjcSmhclD4qIwfsD-1">
          <mxGeometry x="160" y="160" width="140" height="280" as="geometry" />
        </mxCell>
        <mxCell id="JhyzTTC5hSeloBepiJR5-31" value="" style="shape=partialRectangle;html=1;whiteSpace=wrap;collapsible=0;dropTarget=0;pointerEvents=0;fillColor=none;top=0;left=0;bottom=0;right=0;points=[[0,0.5],[1,0.5]];portConstraint=eastwest;" vertex="1" parent="JhyzTTC5hSeloBepiJR5-30">
          <mxGeometry width="140" height="40" as="geometry" />
        </mxCell>
        <mxCell id="JhyzTTC5hSeloBepiJR5-32" value="vptr for B&amp;amp;&amp;amp;D" style="shape=partialRectangle;html=1;whiteSpace=wrap;connectable=0;overflow=hidden;fillColor=none;top=0;left=0;bottom=0;right=0;" vertex="1" parent="JhyzTTC5hSeloBepiJR5-31">
          <mxGeometry width="140" height="40" as="geometry" />
        </mxCell>
        <mxCell id="JhyzTTC5hSeloBepiJR5-33" value="" style="shape=partialRectangle;html=1;whiteSpace=wrap;collapsible=0;dropTarget=0;pointerEvents=0;fillColor=none;top=0;left=0;bottom=0;right=0;points=[[0,0.5],[1,0.5]];portConstraint=eastwest;" vertex="1" parent="JhyzTTC5hSeloBepiJR5-30">
          <mxGeometry y="40" width="140" height="40" as="geometry" />
        </mxCell>
        <mxCell id="JhyzTTC5hSeloBepiJR5-34" value="int b" style="shape=partialRectangle;html=1;whiteSpace=wrap;connectable=0;overflow=hidden;fillColor=none;top=0;left=0;bottom=0;right=0;" vertex="1" parent="JhyzTTC5hSeloBepiJR5-33">
          <mxGeometry width="140" height="40" as="geometry" />
        </mxCell>
        <mxCell id="JhyzTTC5hSeloBepiJR5-35" value="" style="shape=partialRectangle;html=1;whiteSpace=wrap;collapsible=0;dropTarget=0;pointerEvents=0;fillColor=none;top=0;left=0;bottom=0;right=0;points=[[0,0.5],[1,0.5]];portConstraint=eastwest;" vertex="1" parent="JhyzTTC5hSeloBepiJR5-30">
          <mxGeometry y="80" width="140" height="40" as="geometry" />
        </mxCell>
        <mxCell id="JhyzTTC5hSeloBepiJR5-36" value="vptr for C" style="shape=partialRectangle;html=1;whiteSpace=wrap;connectable=0;overflow=hidden;fillColor=none;top=0;left=0;bottom=0;right=0;" vertex="1" parent="JhyzTTC5hSeloBepiJR5-35">
          <mxGeometry width="140" height="40" as="geometry" />
        </mxCell>
        <mxCell id="JhyzTTC5hSeloBepiJR5-37" value="" style="shape=partialRectangle;html=1;whiteSpace=wrap;collapsible=0;dropTarget=0;pointerEvents=0;fillColor=none;top=0;left=0;bottom=0;right=0;points=[[0,0.5],[1,0.5]];portConstraint=eastwest;" vertex="1" parent="JhyzTTC5hSeloBepiJR5-30">
          <mxGeometry y="120" width="140" height="40" as="geometry" />
        </mxCell>
        <mxCell id="JhyzTTC5hSeloBepiJR5-38" value="int c" style="shape=partialRectangle;html=1;whiteSpace=wrap;connectable=0;overflow=hidden;fillColor=none;top=0;left=0;bottom=0;right=0;" vertex="1" parent="JhyzTTC5hSeloBepiJR5-37">
          <mxGeometry width="140" height="40" as="geometry" />
        </mxCell>
        <mxCell id="JhyzTTC5hSeloBepiJR5-39" value="" style="shape=partialRectangle;html=1;whiteSpace=wrap;collapsible=0;dropTarget=0;pointerEvents=0;fillColor=none;top=0;left=0;bottom=0;right=0;points=[[0,0.5],[1,0.5]];portConstraint=eastwest;" vertex="1" parent="JhyzTTC5hSeloBepiJR5-30">
          <mxGeometry y="160" width="140" height="40" as="geometry" />
        </mxCell>
        <mxCell id="JhyzTTC5hSeloBepiJR5-40" value="int d" style="shape=partialRectangle;html=1;whiteSpace=wrap;connectable=0;overflow=hidden;fillColor=none;top=0;left=0;bottom=0;right=0;" vertex="1" parent="JhyzTTC5hSeloBepiJR5-39">
          <mxGeometry width="140" height="40" as="geometry" />
        </mxCell>
        <mxCell id="JhyzTTC5hSeloBepiJR5-41" value="" style="shape=partialRectangle;html=1;whiteSpace=wrap;collapsible=0;dropTarget=0;pointerEvents=0;fillColor=none;top=0;left=0;bottom=0;right=0;points=[[0,0.5],[1,0.5]];portConstraint=eastwest;" vertex="1" parent="JhyzTTC5hSeloBepiJR5-30">
          <mxGeometry y="200" width="140" height="40" as="geometry" />
        </mxCell>
        <mxCell id="JhyzTTC5hSeloBepiJR5-42" value="vptr for A" style="shape=partialRectangle;html=1;whiteSpace=wrap;connectable=0;overflow=hidden;fillColor=none;top=0;left=0;bottom=0;right=0;" vertex="1" parent="JhyzTTC5hSeloBepiJR5-41">
          <mxGeometry width="140" height="40" as="geometry" />
        </mxCell>
        <mxCell id="EvWwBZrjoh71ok28CEhX-0" style="shape=partialRectangle;html=1;whiteSpace=wrap;collapsible=0;dropTarget=0;pointerEvents=0;fillColor=none;top=0;left=0;bottom=0;right=0;points=[[0,0.5],[1,0.5]];portConstraint=eastwest;" vertex="1" parent="JhyzTTC5hSeloBepiJR5-30">
          <mxGeometry y="240" width="140" height="40" as="geometry" />
        </mxCell>
        <mxCell id="EvWwBZrjoh71ok28CEhX-1" value="int a" style="shape=partialRectangle;html=1;whiteSpace=wrap;connectable=0;overflow=hidden;fillColor=none;top=0;left=0;bottom=0;right=0;" vertex="1" parent="EvWwBZrjoh71ok28CEhX-0">
          <mxGeometry width="140" height="40" as="geometry" />
        </mxCell>
        <mxCell id="EvWwBZrjoh71ok28CEhX-2" value="" style="shape=table;html=1;whiteSpace=wrap;startSize=0;container=1;collapsible=0;childLayout=tableLayout;" vertex="1" parent="dKDHYjcSmhclD4qIwfsD-1">
          <mxGeometry x="380" y="40" width="140" height="520" as="geometry" />
        </mxCell>
        <mxCell id="EvWwBZrjoh71ok28CEhX-3" value="" style="shape=partialRectangle;html=1;whiteSpace=wrap;collapsible=0;dropTarget=0;pointerEvents=0;fillColor=none;top=0;left=0;bottom=0;right=0;points=[[0,0.5],[1,0.5]];portConstraint=eastwest;" vertex="1" parent="EvWwBZrjoh71ok28CEhX-2">
          <mxGeometry width="140" height="40" as="geometry" />
        </mxCell>
        <mxCell id="EvWwBZrjoh71ok28CEhX-4" value="32 (vbase_offset)" style="shape=partialRectangle;html=1;whiteSpace=wrap;connectable=0;overflow=hidden;fillColor=none;top=0;left=0;bottom=0;right=0;" vertex="1" parent="EvWwBZrjoh71ok28CEhX-3">
          <mxGeometry width="140" height="40" as="geometry" />
        </mxCell>
        <mxCell id="EvWwBZrjoh71ok28CEhX-5" value="" style="shape=partialRectangle;html=1;whiteSpace=wrap;collapsible=0;dropTarget=0;pointerEvents=0;fillColor=none;top=0;left=0;bottom=0;right=0;points=[[0,0.5],[1,0.5]];portConstraint=eastwest;" vertex="1" parent="EvWwBZrjoh71ok28CEhX-2">
          <mxGeometry y="40" width="140" height="40" as="geometry" />
        </mxCell>
        <mxCell id="EvWwBZrjoh71ok28CEhX-6" value="0 (top_offset)" style="shape=partialRectangle;html=1;whiteSpace=wrap;connectable=0;overflow=hidden;fillColor=none;top=0;left=0;bottom=0;right=0;" vertex="1" parent="EvWwBZrjoh71ok28CEhX-5">
          <mxGeometry width="140" height="40" as="geometry" />
        </mxCell>
        <mxCell id="EvWwBZrjoh71ok28CEhX-7" value="" style="shape=partialRectangle;html=1;whiteSpace=wrap;collapsible=0;dropTarget=0;pointerEvents=0;fillColor=none;top=0;left=0;bottom=0;right=0;points=[[0,0.5],[1,0.5]];portConstraint=eastwest;" vertex="1" parent="EvWwBZrjoh71ok28CEhX-2">
          <mxGeometry y="80" width="140" height="40" as="geometry" />
        </mxCell>
        <mxCell id="EvWwBZrjoh71ok28CEhX-8" value="type_info" style="shape=partialRectangle;html=1;whiteSpace=wrap;connectable=0;overflow=hidden;fillColor=none;top=0;left=0;bottom=0;right=0;" vertex="1" parent="EvWwBZrjoh71ok28CEhX-7">
          <mxGeometry width="140" height="40" as="geometry" />
        </mxCell>
        <mxCell id="EvWwBZrjoh71ok28CEhX-9" value="" style="shape=partialRectangle;html=1;whiteSpace=wrap;collapsible=0;dropTarget=0;pointerEvents=0;fillColor=none;top=0;left=0;bottom=0;right=0;points=[[0,0.5],[1,0.5]];portConstraint=eastwest;" vertex="1" parent="EvWwBZrjoh71ok28CEhX-2">
          <mxGeometry y="120" width="140" height="40" as="geometry" />
        </mxCell>
        <mxCell id="EvWwBZrjoh71ok28CEhX-10" value="B::vfb" style="shape=partialRectangle;html=1;whiteSpace=wrap;connectable=0;overflow=hidden;fillColor=none;top=0;left=0;bottom=0;right=0;" vertex="1" parent="EvWwBZrjoh71ok28CEhX-9">
          <mxGeometry width="140" height="40" as="geometry" />
        </mxCell>
        <mxCell id="EvWwBZrjoh71ok28CEhX-11" value="" style="shape=partialRectangle;html=1;whiteSpace=wrap;collapsible=0;dropTarget=0;pointerEvents=0;fillColor=none;top=0;left=0;bottom=0;right=0;points=[[0,0.5],[1,0.5]];portConstraint=eastwest;" vertex="1" parent="EvWwBZrjoh71ok28CEhX-2">
          <mxGeometry y="160" width="140" height="40" as="geometry" />
        </mxCell>
        <mxCell id="EvWwBZrjoh71ok28CEhX-12" value="D::vfd" style="shape=partialRectangle;html=1;whiteSpace=wrap;connectable=0;overflow=hidden;fillColor=none;top=0;left=0;bottom=0;right=0;" vertex="1" parent="EvWwBZrjoh71ok28CEhX-11">
          <mxGeometry width="140" height="40" as="geometry" />
        </mxCell>
        <mxCell id="EvWwBZrjoh71ok28CEhX-13" value="" style="shape=partialRectangle;html=1;whiteSpace=wrap;collapsible=0;dropTarget=0;pointerEvents=0;fillColor=none;top=0;left=0;bottom=0;right=0;points=[[0,0.5],[1,0.5]];portConstraint=eastwest;" vertex="1" parent="EvWwBZrjoh71ok28CEhX-2">
          <mxGeometry y="200" width="140" height="40" as="geometry" />
        </mxCell>
        <mxCell id="EvWwBZrjoh71ok28CEhX-14" value="16 (vbase_offset)" style="shape=partialRectangle;html=1;whiteSpace=wrap;connectable=0;overflow=hidden;fillColor=none;top=0;left=0;bottom=0;right=0;" vertex="1" parent="EvWwBZrjoh71ok28CEhX-13">
          <mxGeometry width="140" height="40" as="geometry" />
        </mxCell>
        <mxCell id="EvWwBZrjoh71ok28CEhX-15" style="shape=partialRectangle;html=1;whiteSpace=wrap;collapsible=0;dropTarget=0;pointerEvents=0;fillColor=none;top=0;left=0;bottom=0;right=0;points=[[0,0.5],[1,0.5]];portConstraint=eastwest;" vertex="1" parent="EvWwBZrjoh71ok28CEhX-2">
          <mxGeometry y="240" width="140" height="40" as="geometry" />
        </mxCell>
        <mxCell id="EvWwBZrjoh71ok28CEhX-16" value="-16 (top_offset)" style="shape=partialRectangle;html=1;whiteSpace=wrap;connectable=0;overflow=hidden;fillColor=none;top=0;left=0;bottom=0;right=0;" vertex="1" parent="EvWwBZrjoh71ok28CEhX-15">
          <mxGeometry width="140" height="40" as="geometry" />
        </mxCell>
        <mxCell id="qAiKo3PPREqz0GD29_dM-2" style="shape=partialRectangle;html=1;whiteSpace=wrap;collapsible=0;dropTarget=0;pointerEvents=0;fillColor=none;top=0;left=0;bottom=0;right=0;points=[[0,0.5],[1,0.5]];portConstraint=eastwest;" vertex="1" parent="EvWwBZrjoh71ok28CEhX-2">
          <mxGeometry y="280" width="140" height="40" as="geometry" />
        </mxCell>
        <mxCell id="qAiKo3PPREqz0GD29_dM-3" value="type_info" style="shape=partialRectangle;html=1;whiteSpace=wrap;connectable=0;overflow=hidden;fillColor=none;top=0;left=0;bottom=0;right=0;" vertex="1" parent="qAiKo3PPREqz0GD29_dM-2">
          <mxGeometry width="140" height="40" as="geometry" />
        </mxCell>
        <mxCell id="qAiKo3PPREqz0GD29_dM-0" style="shape=partialRectangle;html=1;whiteSpace=wrap;collapsible=0;dropTarget=0;pointerEvents=0;fillColor=none;top=0;left=0;bottom=0;right=0;points=[[0,0.5],[1,0.5]];portConstraint=eastwest;" vertex="1" parent="EvWwBZrjoh71ok28CEhX-2">
          <mxGeometry y="320" width="140" height="40" as="geometry" />
        </mxCell>
        <mxCell id="qAiKo3PPREqz0GD29_dM-1" value="C::vfc" style="shape=partialRectangle;html=1;whiteSpace=wrap;connectable=0;overflow=hidden;fillColor=none;top=0;left=0;bottom=0;right=0;" vertex="1" parent="qAiKo3PPREqz0GD29_dM-0">
          <mxGeometry width="140" height="40" as="geometry" />
        </mxCell>
        <mxCell id="qAiKo3PPREqz0GD29_dM-4" style="shape=partialRectangle;html=1;whiteSpace=wrap;collapsible=0;dropTarget=0;pointerEvents=0;fillColor=none;top=0;left=0;bottom=0;right=0;points=[[0,0.5],[1,0.5]];portConstraint=eastwest;" vertex="1" parent="EvWwBZrjoh71ok28CEhX-2">
          <mxGeometry y="360" width="140" height="40" as="geometry" />
        </mxCell>
        <mxCell id="qAiKo3PPREqz0GD29_dM-5" value="0 (base_offset)" style="shape=partialRectangle;html=1;whiteSpace=wrap;connectable=0;overflow=hidden;fillColor=none;top=0;left=0;bottom=0;right=0;" vertex="1" parent="qAiKo3PPREqz0GD29_dM-4">
          <mxGeometry width="140" height="40" as="geometry" />
        </mxCell>
        <mxCell id="qAiKo3PPREqz0GD29_dM-10" style="shape=partialRectangle;html=1;whiteSpace=wrap;collapsible=0;dropTarget=0;pointerEvents=0;fillColor=none;top=0;left=0;bottom=0;right=0;points=[[0,0.5],[1,0.5]];portConstraint=eastwest;" vertex="1" parent="EvWwBZrjoh71ok28CEhX-2">
          <mxGeometry y="400" width="140" height="40" as="geometry" />
        </mxCell>
        <mxCell id="qAiKo3PPREqz0GD29_dM-11" value="-32 (top_offset)" style="shape=partialRectangle;html=1;whiteSpace=wrap;connectable=0;overflow=hidden;fillColor=none;top=0;left=0;bottom=0;right=0;" vertex="1" parent="qAiKo3PPREqz0GD29_dM-10">
          <mxGeometry width="140" height="40" as="geometry" />
        </mxCell>
        <mxCell id="qAiKo3PPREqz0GD29_dM-8" style="shape=partialRectangle;html=1;whiteSpace=wrap;collapsible=0;dropTarget=0;pointerEvents=0;fillColor=none;top=0;left=0;bottom=0;right=0;points=[[0,0.5],[1,0.5]];portConstraint=eastwest;" vertex="1" parent="EvWwBZrjoh71ok28CEhX-2">
          <mxGeometry y="440" width="140" height="40" as="geometry" />
        </mxCell>
        <mxCell id="qAiKo3PPREqz0GD29_dM-9" value="type_info" style="shape=partialRectangle;html=1;whiteSpace=wrap;connectable=0;overflow=hidden;fillColor=none;top=0;left=0;bottom=0;right=0;" vertex="1" parent="qAiKo3PPREqz0GD29_dM-8">
          <mxGeometry width="140" height="40" as="geometry" />
        </mxCell>
        <mxCell id="qAiKo3PPREqz0GD29_dM-6" style="shape=partialRectangle;html=1;whiteSpace=wrap;collapsible=0;dropTarget=0;pointerEvents=0;fillColor=none;top=0;left=0;bottom=0;right=0;points=[[0,0.5],[1,0.5]];portConstraint=eastwest;" vertex="1" parent="EvWwBZrjoh71ok28CEhX-2">
          <mxGeometry y="480" width="140" height="40" as="geometry" />
        </mxCell>
        <mxCell id="qAiKo3PPREqz0GD29_dM-7" value="A::vfa" style="shape=partialRectangle;html=1;whiteSpace=wrap;connectable=0;overflow=hidden;fillColor=none;top=0;left=0;bottom=0;right=0;" vertex="1" parent="qAiKo3PPREqz0GD29_dM-6">
          <mxGeometry width="140" height="40" as="geometry" />
        </mxCell>
        <mxCell id="qAiKo3PPREqz0GD29_dM-14" style="edgeStyle=orthogonalEdgeStyle;rounded=0;orthogonalLoop=1;jettySize=auto;html=1;entryX=0;entryY=0.05;entryDx=0;entryDy=0;entryPerimeter=0;" edge="1" parent="dKDHYjcSmhclD4qIwfsD-1" source="JhyzTTC5hSeloBepiJR5-41" target="qAiKo3PPREqz0GD29_dM-6">
          <mxGeometry relative="1" as="geometry">
            <Array as="points">
              <mxPoint x="340" y="360" />
              <mxPoint x="340" y="522" />
            </Array>
          </mxGeometry>
        </mxCell>
        <mxCell id="qAiKo3PPREqz0GD29_dM-16" style="edgeStyle=orthogonalEdgeStyle;rounded=0;orthogonalLoop=1;jettySize=auto;html=1;entryX=-0.007;entryY=-0.05;entryDx=0;entryDy=0;entryPerimeter=0;" edge="1" parent="dKDHYjcSmhclD4qIwfsD-1" source="JhyzTTC5hSeloBepiJR5-35" target="qAiKo3PPREqz0GD29_dM-0">
          <mxGeometry relative="1" as="geometry">
            <Array as="points">
              <mxPoint x="340" y="240" />
              <mxPoint x="340" y="358" />
            </Array>
          </mxGeometry>
        </mxCell>
      </root>
    </mxGraphModel>
  </diagram>
</mxfile>
